<svg xmlns="http://www.w3.org/2000/svg" viewBox="0 0 600 600" width="100%" height="100%">
<defs>
<style>.tit{fill:#2E3192;font-size:22;font-weight:bold;font-family:sans-serif}.sub{fill:#999;font-size:12;font-family:sans-serif}
.pla{fill:#2E3192;font-size:13;font-weight:bold;font-family:sans-serif}.desc{fill:#333;font-size:9;font-family:sans-serif}
.dot{fill:none;stroke:#9BB7D0;stroke-width:1.5;stroke-dasharray:3,3}</style>
</defs>
<rect width="600" height="600" fill="#F0F0F2"/>
<text x="550.0" y="300.0" fill="#E0E0E5" font-size="24" text-anchor="middle" dominant-baseline="central" opacity="0.5">♈</text>
<text x="516.5063509461097" y="425.0" fill="#E0E0E5" font-size="24" text-anchor="middle" dominant-baseline="central" opacity="0.5">♉</text>
<text x="425.0" y="516.5063509461097" fill="#E0E0E5" font-size="24" text-anchor="middle" dominant-baseline="central" opacity="0.5">♊</text>
<text x="300.0" y="550.0" fill="#E0E0E5" font-size="24" text-anchor="middle" dominant-baseline="central" opacity="0.5">♋</text>
<text x="175.00000000000006" y="516.5063509461097" fill="#E0E0E5" font-size="24" text-anchor="middle" dominant-baseline="central" opacity="0.5">♌</text>
<text x="83.49364905389032" y="425.0" fill="#E0E0E5" font-size="24" text-anchor="middle" dominant-baseline="central" opacity="0.5">♍</text>
<text x="50.0" y="300.00000000000006" fill="#E0E0E5" font-size="24" text-anchor="middle" dominant-baseline="central" opacity="0.5">♎</text>
<text x="83.49364905389035" y="174.99999999999997" fill="#E0E0E5" font-size="24" text-anchor="middle" dominant-baseline="central" opacity="0.5">♏</text>
<text x="174.9999999999999" y="83.49364905389041" fill="#E0E0E5" font-size="24" text-anchor="middle" dominant-baseline="central" opacity="0.5">♐</text>
<text x="299.99999999999994" y="50.0" fill="#E0E0E5" font-size="24" text-anchor="middle" dominant-baseline="central" opacity="0.5">♑</text>
<text x="425.0" y="83.49364905389035" fill="#E0E0E5" font-size="24" text-anchor="middle" dominant-baseline="central" opacity="0.5">♒</text>
<text x="516.5063509461096" y="174.9999999999999" fill="#E0E0E5" font-size="24" text-anchor="middle" dominant-baseline="central" opacity="0.5">♓</text>
<text x="300" y="35" class="tit" text-anchor="middle">Entenda o seu Mapa Astral</text>
<text x="300" y="52" class="sub" text-anchor="middle">Conteúdo e mais dicas no @site</text>
<ellipse cx="300" cy="175" rx="45" ry="55" fill="#634235"/>
<ellipse cx="300" cy="175" rx="35" ry="42" fill="#FDDCB5"/>
<rect x="290" y="215" width="20" height="20" rx="5" fill="#FDDCB5"/>
<path d="M270 235 Q300 225 330 235 L340 340 Q300 350 260 340 Z" fill="#FEFEE0" stroke="#E8E8C0" stroke-width="1"/>
<path d="M270 245 Q240 270 235 310" fill="none" stroke="#FDDCB5" stroke-width="12" stroke-linecap="round"/>
<path d="M330 245 Q360 270 365 310" fill="none" stroke="#FDDCB5" stroke-width="12" stroke-linecap="round"/>
<path d="M275 340 L260 420 L285 420 L295 350 Z" fill="#5BA8D3"/>
<path d="M325 340 L340 420 L315 420 L305 350 Z" fill="#5BA8D3"/>
<circle cx="285" cy="155" r="4" fill="#9BB7D0"/>
<path d="M285 155 Q162.5 135 80 145" class="dot"/>
<text x="80" y="137" class="pla" text-anchor="end">Mercúrio</text>
<text x="80" y="153" class="desc" text-anchor="end">COMO VOCÊ SE EXPRESSA,</text>
<text x="80" y="165" class="desc" text-anchor="end">PENSA, SE COMUNICA</text>
<circle cx="285" cy="225" r="4" fill="#9BB7D0"/>
<path d="M285 225 Q162.5 215 80 225" class="dot"/>
<text x="80" y="217" class="pla" text-anchor="end">Júpiter</text>
<text x="80" y="233" class="desc" text-anchor="end">COMO VOCÊ SE EXPANDE,</text>
<text x="80" y="245" class="desc" text-anchor="end">CRESCE, EXAGERA</text>
<circle cx="240" cy="280" r="4" fill="#9BB7D0"/>
<path d="M240 280 Q140.0 270 80 280" class="dot"/>
<text x="80" y="272" class="pla" text-anchor="end">Saturno</text>
<text x="80" y="288" class="desc" text-anchor="end">SUAS RESPONSABILIDADES,</text>
<text x="80" y="300" class="desc" text-anchor="end">OBSTÁCULOS, DEVER</text>
<circle cx="260" cy="330" r="4" fill="#9BB7D0"/>
<path d="M260 330 Q150.0 320 80 330" class="dot"/>
<text x="80" y="322" class="pla" text-anchor="end">Marte</text>
<text x="80" y="338" class="desc" text-anchor="end">SEUS DESAFIOS, SUAS</text>
<text x="80" y="350" class="desc" text-anchor="end">AÇÕES E IMPULSO</text>
<circle cx="315" cy="140" r="4" fill="#9BB7D0"/>
<path d="M315 140 Q437.5 125 520 135" class="dot"/>
<text x="520" y="127" class="pla" text-anchor="start">Ascendente</text>
<text x="520" y="143" class="desc" text-anchor="start">SUAS CARACTERÍSTICAS, SEU JEITO</text>
<text x="520" y="155" class="desc" text-anchor="start">E GOSTOS, SUAS MOTIVAÇÕES</text>
<circle cx="315" cy="260" r="4" fill="#9BB7D0"/>
<path d="M315 260 Q437.5 245 520 255" class="dot"/>
<text x="520" y="247" class="pla" text-anchor="start">Sol</text>
<text x="520" y="263" class="desc" text-anchor="start">COMO VOCÊ É EM SUA FORMA</text>
<text x="520" y="275" class="desc" text-anchor="start">MAIS PURA; SUAS CARACTERÍSTICAS</text>
<circle cx="300" cy="290" r="4" fill="#9BB7D0"/>
<path d="M300 290 Q430.0 280 520 290" class="dot"/>
<text x="520" y="282" class="pla" text-anchor="start">Lua</text>
<text x="520" y="298" class="desc" text-anchor="start">SEUS HÁBITOS, INSTINTO,</text>
<text x="520" y="310" class="desc" text-anchor="start">REAÇÕES EMOCIONAIS</text>
<circle cx="300" cy="350" r="4" fill="#9BB7D0"/>
<path d="M300 350 Q430.0 340 520 350" class="dot"/>
<text x="520" y="342" class="pla" text-anchor="start">Vênus</text>
<text x="520" y="358" class="desc" text-anchor="start">COMO VOCÊ SE RELACIONA,</text>
<text x="520" y="370" class="desc" text-anchor="start">SE DIVERTE</text>
</svg>