<svg xmlns="http://www.w3.org/2000/svg" viewBox="0 0 800 800" width="100%" height="100%">
<defs>
<radialGradient id="bg" cx="50%" cy="50%" r="50%"><stop offset="0%" stop-color="#1a1a3e"/><stop offset="100%" stop-color="#0a0a1a"/></radialGradient>
</defs>
<rect width="800" height="800" fill="url(#bg)"/>
<circle cx="400" cy="400" r="300" fill="none" stroke="#333" stroke-width="2"/>
<circle cx="400" cy="400" r="260" fill="none" stroke="#333" stroke-width="1"/>
<line x1="400.0" y1="140.0" x2="400.0" y2="100.0" stroke="#333" stroke-width="1"/>
<text x="474.5" y="121.8" fill="#e94560" font-size="14" text-anchor="middle" dominant-baseline="central">♈</text>
<line x1="530.0" y1="174.8" x2="550.0" y2="140.2" stroke="#333" stroke-width="1"/>
<text x="603.6" y="196.4" fill="#e94560" font-size="14" text-anchor="middle" dominant-baseline="central">♉</text>
<line x1="625.2" y1="270.0" x2="659.8" y2="250.0" stroke="#333" stroke-width="1"/>
<text x="678.2" y="325.5" fill="#e94560" font-size="14" text-anchor="middle" dominant-baseline="central">♊</text>
<line x1="660.0" y1="400.0" x2="700.0" y2="400.0" stroke="#333" stroke-width="1"/>
<text x="678.2" y="474.5" fill="#e94560" font-size="14" text-anchor="middle" dominant-baseline="central">♋</text>
<line x1="625.2" y1="530.0" x2="659.8" y2="550.0" stroke="#333" stroke-width="1"/>
<text x="603.6" y="603.6" fill="#e94560" font-size="14" text-anchor="middle" dominant-baseline="central">♌</text>
<line x1="530.0" y1="625.2" x2="550.0" y2="659.8" stroke="#333" stroke-width="1"/>
<text x="474.5" y="678.2" fill="#e94560" font-size="14" text-anchor="middle" dominant-baseline="central">♍</text>
<line x1="400.0" y1="660.0" x2="400.0" y2="700.0" stroke="#333" stroke-width="1"/>
<text x="325.5" y="678.2" fill="#e94560" font-size="14" text-anchor="middle" dominant-baseline="central">♎</text>
<line x1="270.0" y1="625.2" x2="250.0" y2="659.8" stroke="#333" stroke-width="1"/>
<text x="196.4" y="603.6" fill="#e94560" font-size="14" text-anchor="middle" dominant-baseline="central">♏</text>
<line x1="174.8" y1="530.0" x2="140.2" y2="550.0" stroke="#333" stroke-width="1"/>
<text x="121.8" y="474.5" fill="#e94560" font-size="14" text-anchor="middle" dominant-baseline="central">♐</text>
<line x1="140.0" y1="400.0" x2="100.0" y2="400.0" stroke="#333" stroke-width="1"/>
<text x="121.8" y="325.5" fill="#e94560" font-size="14" text-anchor="middle" dominant-baseline="central">♑</text>
<line x1="174.8" y1="270.0" x2="140.2" y2="250.0" stroke="#333" stroke-width="1"/>
<text x="196.4" y="196.4" fill="#e94560" font-size="14" text-anchor="middle" dominant-baseline="central">♒</text>
<line x1="270.0" y1="174.8" x2="250.0" y2="140.2" stroke="#333" stroke-width="1"/>
<text x="325.5" y="121.8" fill="#e94560" font-size="14" text-anchor="middle" dominant-baseline="central">♓</text>
<line x1="400.0" y1="140.0" x2="400.0" y2="100.0" stroke="#555" stroke-width="2"/>
<text x="400.0" y="130.0" fill="#888" font-size="9" text-anchor="middle" dominant-baseline="central">1</text>
<line x1="530.0" y1="174.8" x2="550.0" y2="140.2" stroke="#555" stroke-width="1"/>
<text x="535.0" y="166.2" fill="#888" font-size="9" text-anchor="middle" dominant-baseline="central">2</text>
<line x1="625.2" y1="270.0" x2="659.8" y2="250.0" stroke="#555" stroke-width="1"/>
<text x="633.8" y="265.0" fill="#888" font-size="9" text-anchor="middle" dominant-baseline="central">3</text>
<line x1="660.0" y1="400.0" x2="700.0" y2="400.0" stroke="#555" stroke-width="2"/>
<text x="670.0" y="400.0" fill="#888" font-size="9" text-anchor="middle" dominant-baseline="central">4</text>
<line x1="625.2" y1="530.0" x2="659.8" y2="550.0" stroke="#555" stroke-width="1"/>
<text x="633.8" y="535.0" fill="#888" font-size="9" text-anchor="middle" dominant-baseline="central">5</text>
<line x1="530.0" y1="625.2" x2="550.0" y2="659.8" stroke="#555" stroke-width="1"/>
<text x="535.0" y="633.8" fill="#888" font-size="9" text-anchor="middle" dominant-baseline="central">6</text>
<line x1="400.0" y1="660.0" x2="400.0" y2="700.0" stroke="#555" stroke-width="2"/>
<text x="400.0" y="670.0" fill="#888" font-size="9" text-anchor="middle" dominant-baseline="central">7</text>
<line x1="270.0" y1="625.2" x2="250.0" y2="659.8" stroke="#555" stroke-width="1"/>
<text x="265.0" y="633.8" fill="#888" font-size="9" text-anchor="middle" dominant-baseline="central">8</text>
<line x1="174.8" y1="530.0" x2="140.2" y2="550.0" stroke="#555" stroke-width="1"/>
<text x="166.2" y="535.0" fill="#888" font-size="9" text-anchor="middle" dominant-baseline="central">9</text>
<line x1="140.0" y1="400.0" x2="100.0" y2="400.0" stroke="#555" stroke-width="2"/>
<text x="130.0" y="400.0" fill="#888" font-size="9" text-anchor="middle" dominant-baseline="central">10</text>
<line x1="174.8" y1="270.0" x2="140.2" y2="250.0" stroke="#555" stroke-width="1"/>
<text x="166.2" y="265.0" fill="#888" font-size="9" text-anchor="middle" dominant-baseline="central">11</text>
<line x1="270.0" y1="174.8" x2="250.0" y2="140.2" stroke="#555" stroke-width="1"/>
<text x="265.0" y="166.2" fill="#888" font-size="9" text-anchor="middle" dominant-baseline="central">12</text>
<text x="177.8" y="535.1" fill="#FFD700" font-size="11" font-weight="bold" text-anchor="middle" dominant-baseline="central">ASC</text>
<text x="535.1" y="622.2" fill="#FFD700" font-size="11" font-weight="bold" text-anchor="middle" dominant-baseline="central">MC</text>
<text x="622.2" y="264.9" fill="#FFD700" font-size="11" font-weight="bold" text-anchor="middle" dominant-baseline="central">DC</text>
<text x="264.9" y="177.8" fill="#FFD700" font-size="11" font-weight="bold" text-anchor="middle" dominant-baseline="central">IC</text>
<line x1="601.1" y1="310.8" x2="466.9" y2="609.6" stroke="#4CAF50" stroke-width="1.5" stroke-dasharray="6,3" opacity="0.6"/>
<line x1="566.2" y1="255.8" x2="570.0" y2="260.4" stroke="#4CAF50" stroke-width="1.5" stroke-dasharray="6,3" opacity="0.6"/>
<line x1="566.2" y1="255.8" x2="442.8" y2="184.2" stroke="#2196F3" stroke-width="1.5" stroke-dasharray="none" opacity="0.6"/>
<line x1="355.9" y1="184.5" x2="570.0" y2="260.4" stroke="#9C27B0" stroke-width="1.5" stroke-dasharray="6,3" opacity="0.6"/>
<line x1="355.9" y1="184.5" x2="244.1" y2="555.2" stroke="#4CAF50" stroke-width="1.5" stroke-dasharray="6,3" opacity="0.6"/>
<line x1="355.9" y1="184.5" x2="601.1" y2="310.8" stroke="#4CAF50" stroke-width="1.5" stroke-dasharray="6,3" opacity="0.6"/>
<line x1="442.8" y1="184.2" x2="570.0" y2="260.4" stroke="#4CAF50" stroke-width="1.5" stroke-dasharray="6,3" opacity="0.6"/>
<line x1="566.2" y1="255.8" x2="244.1" y2="555.2" stroke="#9C27B0" stroke-width="1.5" stroke-dasharray="6,3" opacity="0.6"/>
<line x1="442.8" y1="184.2" x2="244.1" y2="555.2" stroke="#9C27B0" stroke-width="1.5" stroke-dasharray="6,3" opacity="0.6"/>
<line x1="355.9" y1="184.5" x2="466.9" y2="609.6" stroke="#4CAF50" stroke-width="1.5" stroke-dasharray="6,3" opacity="0.6"/>
<text x="643.8" y="375.9" fill="#fff" font-size="16" text-anchor="middle" dominant-baseline="central">☉</text>
<text x="655.8" y="379.9" fill="#aaa" font-size="8" text-anchor="start">23°</text>
<text x="350.9" y="160.0" fill="#fff" font-size="16" text-anchor="middle" dominant-baseline="central">☽</text>
<text x="362.9" y="164.0" fill="#aaa" font-size="8" text-anchor="start">14°</text>
<text x="624.0" y="300.7" fill="#fff" font-size="16" text-anchor="middle" dominant-baseline="central">☿</text>
<text x="636.0" y="304.7" fill="#aaa" font-size="8" text-anchor="start">12°</text>
<text x="585.0" y="239.4" fill="#fff" font-size="16" text-anchor="middle" dominant-baseline="central">♀</text>
<text x="597.0" y="243.4" fill="#aaa" font-size="8" text-anchor="start">20°</text>
<text x="447.6" y="159.7" fill="#fff" font-size="16" text-anchor="middle" dominant-baseline="central">♂</text>
<text x="459.6" y="163.7" fill="#aaa" font-size="8" text-anchor="start">19°</text>
<text x="589.3" y="244.5" fill="#fff" font-size="16" text-anchor="middle" dominant-baseline="central">♃</text>
<text x="601.3" y="248.5" fill="#aaa" font-size="8" text-anchor="start">20°</text>
<text x="293.8" y="179.2" fill="#fff" font-size="16" text-anchor="middle" dominant-baseline="central">♄</text>
<text x="305.8" y="183.2" fill="#aaa" font-size="8" text-anchor="start">4°</text>
<text x="493.3" y="626.5" fill="#fff" font-size="16" text-anchor="middle" dominant-baseline="central">♅</text>
<text x="505.3" y="630.5" fill="#aaa" font-size="8" text-anchor="start">7°</text>
<text x="226.3" y="572.8" fill="#fff" font-size="16" text-anchor="middle" dominant-baseline="central">♆</text>
<text x="238.3" y="576.8" fill="#aaa" font-size="8" text-anchor="start">15°</text>
<text x="474.5" y="633.4" fill="#fff" font-size="16" text-anchor="middle" dominant-baseline="central">♇</text>
<text x="486.5" y="637.4" fill="#aaa" font-size="8" text-anchor="start">12°</text>
<text x="400" y="392" fill="#fff" font-size="13" font-weight="bold" text-anchor="middle">Ivan</text>
<text x="400" y="410" fill="#e94560" font-size="10" text-anchor="middle">ASC 28.7° ♏</text>
<text x="30" y="30" fill="#e94560" font-size="16" font-weight="bold">🌙 Mapa Astral</text>
<text x="30" y="52" fill="#aaa" font-size="11">Ivan Tadeu dos Santos Souza</text>
<text x="30" y="68" fill="#888" font-size="10">15/07/1964 14:00 Brasília-DF</text>
<text x="30" y="95" fill="#e94560" font-size="11" font-weight="bold">Planeta</text>
<text x="100" y="95" fill="#e94560" font-size="11" font-weight="bold">Signo</text>
<text x="160" y="95" fill="#e94560" font-size="11" font-weight="bold">Posição</text>
<text x="220" y="95" fill="#e94560" font-size="11" font-weight="bold">Casa</text>
<line x1="30" y1="98" x2="270" y2="98" stroke="#333" stroke-width="1"/>
<text x="30" y="115" fill="#fff" font-size="11">☉ Sol</text>
<text x="100" y="115" fill="#ccc" font-size="11">Câncer</text>
<text x="160" y="115" fill="#ccc" font-size="11">23°18'</text>
<text x="220" y="115" fill="#ccc" font-size="11">Casa 9</text>
<text x="30" y="133" fill="#fff" font-size="11">☽ Lua</text>
<text x="100" y="133" fill="#ccc" font-size="11">Libra</text>
<text x="160" y="133" fill="#ccc" font-size="11">14°06'</text>
<text x="220" y="133" fill="#ccc" font-size="11">Casa 11</text>
<text x="30" y="151" fill="#fff" font-size="11">☿ Mercúrio</text>
<text x="100" y="151" fill="#ccc" font-size="11">Leão</text>
<text x="160" y="151" fill="#ccc" font-size="11">12°05'</text>
<text x="220" y="151" fill="#ccc" font-size="11">Casa 9</text>
<text x="30" y="169" fill="#fff" font-size="11">♀ Vênus</text>
<text x="100" y="169" fill="#ccc" font-size="11">Gêmeos</text>
<text x="160" y="169" fill="#ccc" font-size="11">20°42'</text>
<text x="220" y="169" fill="#ccc" font-size="11">Casa 7</text>
<text x="30" y="187" fill="#fff" font-size="11">♂ Marte</text>
<text x="100" y="187" fill="#ccc" font-size="11">Gêmeos</text>
<text x="160" y="187" fill="#ccc" font-size="11">19°48'</text>
<text x="220" y="187" fill="#ccc" font-size="11">Casa 7</text>
<text x="30" y="205" fill="#fff" font-size="11">♃ Júpiter</text>
<text x="100" y="205" fill="#ccc" font-size="11">Touro</text>
<text x="160" y="205" fill="#ccc" font-size="11">20°36'</text>
<text x="220" y="205" fill="#ccc" font-size="11">Casa 6</text>
<text x="30" y="223" fill="#fff" font-size="11">♄ Saturno</text>
<text x="100" y="223" fill="#ccc" font-size="11">Peixes</text>
<text x="160" y="223" fill="#ccc" font-size="11">4°18'</text>
<text x="220" y="223" fill="#ccc" font-size="11">Casa 4 R</text>
<text x="30" y="241" fill="#fff" font-size="11">♅ Urano</text>
<text x="100" y="241" fill="#ccc" font-size="11">Virgem</text>
<text x="160" y="241" fill="#ccc" font-size="11">7°36'</text>
<text x="220" y="241" fill="#ccc" font-size="11">Casa 10</text>
<text x="30" y="259" fill="#fff" font-size="11">♆ Netuno</text>
<text x="100" y="259" fill="#ccc" font-size="11">Escorpião</text>
<text x="160" y="259" fill="#ccc" font-size="11">15°06'</text>
<text x="220" y="259" fill="#ccc" font-size="11">Casa 12 R</text>
<text x="30" y="277" fill="#fff" font-size="11">♇ Plutão</text>
<text x="100" y="277" fill="#ccc" font-size="11">Virgem</text>
<text x="160" y="277" fill="#ccc" font-size="11">12°18'</text>
<text x="220" y="277" fill="#ccc" font-size="11">Casa 10</text>
<text x="30" y="520" fill="#e94560" font-size="12" font-weight="bold">🔗 Aspectos</text>
<text x="60" y="538" fill="#888" font-size="8" text-anchor="middle">Sol</text>
<text x="42" y="538" fill="#888" font-size="8" text-anchor="end">Sol</text>
<text x="82" y="538" fill="#888" font-size="8" text-anchor="middle">Lua</text>
<text x="42" y="556" fill="#888" font-size="8" text-anchor="end">Lua</text>
<text x="104" y="538" fill="#888" font-size="8" text-anchor="middle">Mer</text>
<text x="42" y="574" fill="#888" font-size="8" text-anchor="end">Mer</text>
<text x="126" y="538" fill="#888" font-size="8" text-anchor="middle">Vên</text>
<text x="42" y="592" fill="#888" font-size="8" text-anchor="end">Vên</text>
<text x="148" y="538" fill="#888" font-size="8" text-anchor="middle">Mar</text>
<text x="42" y="610" fill="#888" font-size="8" text-anchor="end">Mar</text>
<text x="170" y="538" fill="#888" font-size="8" text-anchor="middle">Jup</text>
<text x="42" y="628" fill="#888" font-size="8" text-anchor="end">Jup</text>
<text x="192" y="538" fill="#888" font-size="8" text-anchor="middle">Sat</text>
<text x="42" y="646" fill="#888" font-size="8" text-anchor="end">Sat</text>
<text x="214" y="538" fill="#888" font-size="8" text-anchor="middle">Ura</text>
<text x="42" y="664" fill="#888" font-size="8" text-anchor="end">Ura</text>
<text x="236" y="538" fill="#888" font-size="8" text-anchor="middle">Net</text>
<text x="42" y="682" fill="#888" font-size="8" text-anchor="end">Net</text>
<text x="258" y="538" fill="#888" font-size="8" text-anchor="middle">Plu</text>
<text x="42" y="700" fill="#888" font-size="8" text-anchor="end">Plu</text>
<text x="258" y="574" fill="#4CAF50" font-size="10" text-anchor="middle">⚺</text>
<text x="170" y="592" fill="#4CAF50" font-size="10" text-anchor="middle">⚺</text>
<text x="148" y="592" fill="#2196F3" font-size="10" text-anchor="middle">☌</text>
<text x="170" y="556" fill="#9C27B0" font-size="10" text-anchor="middle">⩩</text>
<text x="236" y="556" fill="#4CAF50" font-size="10" text-anchor="middle">⚺</text>
<text x="104" y="556" fill="#4CAF50" font-size="10" text-anchor="middle">⚹</text>
<text x="170" y="610" fill="#4CAF50" font-size="10" text-anchor="middle">⚺</text>
<text x="236" y="592" fill="#9C27B0" font-size="10" text-anchor="middle">⩩</text>
<text x="236" y="610" fill="#9C27B0" font-size="10" text-anchor="middle">⩩</text>
<text x="258" y="556" fill="#4CAF50" font-size="10" text-anchor="middle">⚺</text>
<text x="30" y="730" fill="#4CAF50" font-size="9">⚺ Semisextil</text>
<text x="130" y="730" fill="#2196F3" font-size="9">☌ Conjunção</text>
<text x="230" y="730" fill="#9C27B0" font-size="9">⩩ Biquintil</text>
<text x="30" y="746" fill="#4CAF50" font-size="9">⚹ Sextil</text>
</svg>